<svg id="Capa_1" data-name="Capa 1" xmlns="http://www.w3.org/2000/svg" viewBox="0 0 540 540"><defs><style>.cls-1{fill:#fff;fill-rule:evenodd;}</style></defs><path class="cls-1" d="M269.77,540C120.77,540-.37,418.76,0,269.9.3,118.38,124.1-3.13,276,.06c146.26,3,267.29,123.77,264,276.29C536.77,422.35,417.36,540.2,269.77,540ZM427,248.87h-7.39c-40.82,0-81.62-.2-122.44.13-4.66,0-6-1.06-6-6,.23-33.74,0-67.6.2-101.41,0-3.86-.83-5.26-5-5.12-11.35.2-22.69.39-34-.14-5.06-.06-5.78,1.73-5.78,6.13.19,33.14.13,66.21.09,99.28,0,7.92.93,7-6.75,7q-50.16.21-100.35-.06c-4.13,0-5.66,1-5.52,5.32.33,11.18.38,22.29,0,33.48-.14,4.65,1,6.12,5.89,6,33.47-.27,66.91,0,100.38-.27,5.12,0,6.55,1.2,6.49,6.53-.23,33.53,0,67.2-.23,100.88,0,4.19,1.16,5.45,5.42,5.32,11.34-.27,22.69-.27,34,0,4.29.13,5.42-1.2,5.39-5.32-.17-33.87,0-67.68-.2-101.55,0-4.86,1.36-5.86,6-5.86,27,.27,54,.2,80.95.07,2.09,0,4.19.33,6-1.53C398,277.82,411.94,263.91,427,248.87Z"/></svg>