<svg id="Capa_1" data-name="Capa 1" xmlns="http://www.w3.org/2000/svg" viewBox="0 0 450.07 540.04"><defs><style>.cls-1{fill:#bebdbd;fill-rule:evenodd;}</style></defs><path class="cls-1" d="M494.92,303.89q0,114.38,0,228.72c0,8.18,1.23,7.25-7,7.25q-187.18,0-374.36.16c-18.43,0-34.85-4.23-48.61-16.74C51.56,511.14,45,495.85,45,477.82q0-95.74,0-191.48V65.14C45,30.28,66,5.88,100.59.88a68.79,68.79,0,0,1,9.63-.73q144,0,288.07-.17c5.54,0,6.78,1.46,6.77,6.89q-.21,218.21,0,436.38c0,5.64-1.57,6.72-6.87,6.68q-138.09-.23-276.18-.14a54.41,54.41,0,0,0-12.83,1.35c-11.73,2.87-19.47,12.17-18.93,22.4.59,10,9.12,18.45,20.67,20.33a77.13,77.13,0,0,0,11.26.91c39.21.06,78.4.43,117.6,0,67.95-.83,135.91-.16,203.86-.26,5.19,0,6-1.74,6-6.37q-.14-206.88-.21-413.75c0-5.67,1.45-7.17,7-7,11.11.47,22.29.34,33.42,0,4-.1,5.11,1,5.1,5.08-.17,36.12-.11,72.26-.11,108.42ZM314.31,90.35h-41c-44.05,0-88.1.1-132.17-.14-5.14,0-6.24,1.56-6.09,6.31.33,11,.29,21.94,0,32.9-.11,4.25,1.09,5.42,5.38,5.42,34.89-.18,69.75-.09,104.65-.12,8.26,0,24.52-.87,24.52-.87s12.07-11,17.93-16.81C296.19,108.48,304.75,99.87,314.31,90.35Z" transform="translate(-44.97 0.02)"/></svg>