<svg id="Capa_1" data-name="Capa 1" xmlns="http://www.w3.org/2000/svg" viewBox="0 0 540 540"><defs><style>.cls-1{fill:#fff;fill-rule:evenodd;}</style></defs><path class="cls-1" d="M180,467c-2.24-.62-3.42-2.29-4.81-3.65q-38-37.32-76-74.68Q51.08,341.35,2.85,294.16c-3.73-3.62-3.87-5.55,0-9.19,11.22-10.52,22.1-21.41,32.88-32.39,2.65-2.69,4-2.35,6.53.12Q97.22,307,152.35,361c8,7.89,16.09,15.73,23.9,23.81,2.55,2.64,3.89,2.58,6.5,0q45.83-45.39,91.91-90.56Q347,223.07,419.25,151.82c25.87-25.48,51.87-50.81,77.65-76.35,3.06-3,4.63-3.41,7.83-.13,10.76,11,21.85,21.68,32.92,32.36,2.47,2.39,3.56,3.93.42,7q-56.84,55.74-113.42,111.74-36.24,35.73-72.57,71.36-71.9,70.82-143.76,141.66c-8.44,8.31-16.94,16.53-25.43,24.78C181.92,465.21,180.9,466.11,180,467Z"/></svg>