<svg id="Capa_1" data-name="Capa 1" xmlns="http://www.w3.org/2000/svg" viewBox="0 0 540 540"><defs><style>.cls-1{fill:#0084c8;fill-rule:evenodd;}</style></defs><path class="cls-1" d="M236.13,411.54V1.94c7.18,6.86,13.57,13,19.85,19.15,14,13.83,27.88,27.85,42,41.58a11.38,11.38,0,0,1,3.63,9q-.18,166.26-.08,332.52c0,2-.53,4.25.76,6.87,3.57-3.68,6.91-7.07,10.2-10.45q54.84-56,109.63-112.1c2.37-2.42,3.53-2.51,5.85-.09,13.66,14.12,27.42,28.24,41.35,42.17,2.59,2.51,1.23,3.57-.53,5.41q-45.93,46.72-91.74,93.63-51.87,52.8-103.73,105.81c-3.53,3.67-5.15,3.38-8.58-.2-14.44-15.28-29.31-30.08-43.94-45Q163.43,431.8,106,373.34c-11.65-11.8-23.21-23.9-35-35.69-2.23-2.23-2.61-3.39-.15-5.9Q91.51,311,111.8,289.87c2.37-2.52,3.6-2.23,5.88.1q55.92,57.43,112.16,114.9C231.56,406.6,233.25,408.44,236.13,411.54Z"/></svg>