<svg id="Capa_1" data-name="Capa 1" xmlns="http://www.w3.org/2000/svg" viewBox="0 0 540 540"><defs><style>.cls-1{fill:#fff;fill-rule:evenodd;}</style></defs><path class="cls-1" d="M464.73,324.16V512.87c0,17.47-9.59,27-27.14,27q-167.65,0-335.33.17c-15.21,0-27.3-11.15-27.24-27.3.4-126.39.24-252.79.24-379.12,0-7.66,0-7.66-8-7.66-11.89,0-23.75-.22-35.65.06-4.51.11-5.47-1.34-5.41-5.55.22-20.48.28-40.95,0-61.37-.07-4.94.91-6.49,6.25-6.44,44.61.23,89.19,0,133.79.23,5.35,0,6.6-1.5,6.24-6.44-.43-6-.22-12.1-.07-18.09.33-13.87,10.85-24.41,24.64-24.41q72.69-.17,145.44-.06c14.33.06,24.71,10.38,25,24.58.15,6.27.36,12.49-.07,18.7-.33,4.77,1.36,5.72,5.83,5.66,44.59-.11,89.18,0,133.76-.17,5.23,0,6.81,1.17,6.72,6.61-.34,20.41-.29,40.89,0,61.31,0,4.6-1.36,5.49-5.61,5.44-12.45-.23-24.94.11-37.38-.17-4.91-.17-6.15,1.33-6.15,6.16Q464.85,228.09,464.73,324.16ZM196.38,465.65a20.21,20.21,0,0,0,.55-2.55q0-93.37.1-186.76c0-3.78-1.39-4.5-4.74-4.44-12.85.17-25.69.22-38.52-.06-4.12,0-5.29,1.28-5.29,5.33q.24,68.32.08,136.55c0,2.38.31,4.43,2.21,6.32C165.82,435,180.73,450,196.38,465.65Zm97.72.44c0-64.53,0-127.39.08-190.25,0-3.77-1.95-3.94-4.75-3.89-12.64.06-25.29.28-38-.11-4.8-.11-5.7,1.56-5.69,6,.14,43,.28,86-.09,129-.06,7.82,1.93,13.37,7.68,18.75C266.94,438.35,279.8,451.84,294.1,466.09Zm96.52-.49a16.86,16.86,0,0,0,.72-2.67q0-93.37.1-186.87c0-3.55-1.56-4.16-4.6-4.16-13,.11-26.07.22-39.11-.06-4,0-4.78,1.45-4.78,5.05q.18,68.67.06,137.22c0,2,0,3.77,1.61,5.38C359.75,434.52,374.83,449.73,390.62,465.6Z"/></svg>