<svg id="Capa_1" data-name="Capa 1" xmlns="http://www.w3.org/2000/svg" viewBox="0 0 540 540"><defs><style>.cls-1{fill:#fff;}</style></defs><path class="cls-1" d="M270,0C120.89,0,0,120.88,0,270S120.89,540,270,540,540,419.12,540,270,419.11,0,270,0ZM406.13,315.2q-31.45,32-62.83,64.1-35.51,36.17-71,72.46c-2.4,2.51-3.53,2.32-5.86-.13-9.89-10.47-20.06-20.6-30.09-30.8q-39.31-40-78.58-80.07c-8-8.08-15.9-16.36-24-24.43-1.5-1.53-1.77-2.33-.08-4.05q14.1-14.2,28-28.68c1.61-1.72,2.46-1.52,4,.07Q204,323,242.51,362.35c1.17,1.19,2.35,2.45,4.28,4.57V86.44c4.91,4.7,9.32,8.87,13.63,13.11C270,109,279.51,118.62,289.14,128a7.72,7.72,0,0,1,2.5,6.16q-.09,113.84,0,227.69c0,1.39-.39,2.92.49,4.71,2.45-2.52,4.73-4.84,7-7.15q37.54-38.37,75.08-76.77c1.61-1.66,2.41-1.72,4-.06,9.39,9.66,18.79,19.34,28.31,28.87C408.26,313.21,407.34,313.94,406.13,315.2Z"/></svg>