<svg id="Capa_1" data-name="Capa 1" xmlns="http://www.w3.org/2000/svg" viewBox="0 0 540 540"><defs><style>.cls-1{fill:#fff;fill-rule:evenodd;}</style></defs><path class="cls-1" d="M235.88,412.67V0c7.24,6.92,13.67,13.06,20,19.29C270,33.2,284,47.33,298.19,61.17a11.39,11.39,0,0,1,3.65,9q-.15,167.63,0,335c0,2.05-.56,4.28.73,6.91,3.6-3.7,7-7.1,10.28-10.52Q368,345.16,423.25,288.65c2.36-2.44,3.54-2.54,5.88-.1,13.78,14.22,27.61,28.55,41.64,42.48,2.61,2.53,1.24,3.6-.53,5.45Q424,383.54,377.83,430.79,325.59,484,273.34,537.37c-3.55,3.71-5.19,3.41-8.64-.19-14.54-15.39-29.5-30.3-44.26-45.31Q162.64,433,104.85,374.09C93.11,362.2,81.46,350,69.63,338.14c-2.24-2.24-2.63-3.41-.15-5.94Q90.21,311.3,110.65,290c2.38-2.53,3.62-2.24,5.91.1q56.38,57.87,113,115.74C231.28,407.6,233,409.45,235.88,412.67Z"/></svg>