<svg id="Capa_1" data-name="Capa 1" xmlns="http://www.w3.org/2000/svg" viewBox="0 0 540 540"><defs><style>.cls-1{fill:#bfbebd;fill-rule:evenodd;}</style></defs><path class="cls-1" d="M367.73,172.25c-22.74,0-43.84.07-64.93,0-9.9,0-8.53,1.33-8.55-8.24,0-52.32.06-104.65-.12-157,0-5,1.1-6.13,6.32-6.74,13.48-1.6,22.66,3.55,32,13.14C375.2,57.17,418.69,100.14,462,143.29a12.43,12.43,0,0,1,4,9.73q-.15,180.19-.08,360.43c0,16.72-9.9,26.57-26.69,26.57H100.63C83.8,540,74,530.21,74,513.4V27.21C74,10.53,84,.55,100.64.55,146.9.53,193.15.64,239.4.41c5.35,0,6.4,1.54,6.39,6.56-.18,69,0,138-.24,206.94,0,5.64.89,7.73,7.21,7.56,20.37-.49,40.76-.16,61.12-.18,2.33,0,4.6.31,6.56-1.7C335.74,204.18,351.15,188.83,367.73,172.25Z"/></svg>