<svg id="Capa_1" data-name="Capa 1" xmlns="http://www.w3.org/2000/svg" viewBox="0 0 540 540"><defs><style>.cls-1{fill:#fff;}</style></defs><path class="cls-1" d="M173.39,508.82H84.05c-14.11,0-22.67-8.53-22.68-22.66q0-80.11-.08-160.22a8.56,8.56,0,0,1,3.61-7.52q100.22-80,200.26-160.24c3.35-2.69,5.37-2.71,8.73,0q100,80.26,200.27,160.24a8.6,8.6,0,0,1,3.62,7.52q-.16,80.1-.09,160.22c0,14.13-8.56,22.67-22.66,22.67-18.47,0-36.94-.15-55.4.12-4.5.07-5.53-1.27-5.51-5.59.14-51.75,0-103.49.21-155.23,0-4.82-1.18-6-6-6q-56.65.33-113.3,0c-4.41,0-5.49,1.11-5.48,5.49.16,51.75,0,103.49.21,155.23,0,4.77-1.17,6.13-6,6.09C233.62,508.7,203.51,508.82,173.39,508.82Zm53.35-144.69c-.59-.61-.69-.81-.79-.81-32.94-.05-65.88-.05-98.82-.17-3,0-3,1.57-3,3.75.05,11.14.12,22.29,0,33.44,0,3.23.92,4.26,4.21,4.24,18.3-.15,36.6-.09,54.9-.05a6.32,6.32,0,0,0,4.91-1.86C200.88,389.84,213.75,377.07,226.74,364.13Z"/><path class="cls-1" d="M540,258.93c-1.08,1.18-1.72,1.94-2.41,2.63C525.36,273.8,513.07,286,501,298.31c-2.19,2.22-3.45,1.95-5.7.11q-102-83.64-204.17-167.15c-5.92-4.84-12-9.49-17.7-14.59-3-2.7-4.9-2.29-7.84.14q-44.85,37-89.9,73.66-66,54-132,108.1c-2.73,2.24-4,1.46-6.07-.6C25.79,286,14,274.08,1.93,262.38-1,259.56-.4,258.27,2.35,256q43.32-36.45,86.46-73.1Q159.07,123.41,229.33,64c12.32-10.41,24.7-20.74,36.9-31.29,2.53-2.19,4-2.19,6.59,0q54,45.87,108.11,91.53,76.72,64.9,153.44,129.84C536.22,255.63,538,257.23,540,258.93Z"/></svg>