<?xml version="1.0" encoding="utf-8"?>
<!-- Generator: Adobe Illustrator 16.0.0, SVG Export Plug-In . SVG Version: 6.00 Build 0)  -->
<!DOCTYPE svg PUBLIC "-//W3C//DTD SVG 1.1//EN" "http://www.w3.org/Graphics/SVG/1.1/DTD/svg11.dtd">
<svg version="1.1" id="Capa_1" xmlns="http://www.w3.org/2000/svg" xmlns:xlink="http://www.w3.org/1999/xlink" x="0px" y="0px"
	 width="1000px" height="144px" viewBox="0 412.5 1000 144" enable-background="new 0 412.5 1000 144" xml:space="preserve">
<title>Mesa de trabajo 1 copia</title>
<path fill="#FFFFFF" d="M285.995,504.06l14.856-49.596l15.061,49.596H285.995z M324.401,445.818
	c-3.018-8.938-4.699-11.024-13.213-11.024h-20.774l-33.243,108.669h16.925l7.148-23.402h39.492l7.186,23.402h29.451L324.401,445.818
	z"/>
<path fill="#FFFFFF" d="M132.274,528.979h-7.728v-80.046h13.965c6.734,0,12.516,5.548,12.516,12.25c0,2.355-0.435,4.551-2.736,7.878
	l-9.043,13.569c9.47,2.263,15.793,9.483,15.793,22.973C155.042,522.001,145.247,528.979,132.274,528.979 M159.694,477.373
	l5.341-7.863c11.209-16.658,3.5-34.731-18.697-34.731H98.964v108.725h45.683C184.834,543.503,196.857,496.703,159.694,477.373"/>
<path fill="#FFFFFF" d="M40.273,528.979h-7.669v-80.046h13.908c6.743,0,12.583,5.548,12.583,12.25c0,2.355-0.434,4.551-2.774,7.878
	l-9.112,13.569c9.518,2.263,15.833,9.483,15.833,22.973C63.042,522.001,53.254,528.979,40.273,528.979 M67.704,477.373l5.29-7.863
	c11.26-16.658,3.551-34.731-18.705-34.731H6.982v108.725h45.682C92.812,543.503,104.952,496.703,67.704,477.373"/>
<path fill="#FFFFFF" d="M252.682,434.778l-24.537,82.551l-20.632-68.396c-3.867-12.254-5.821-14.155-13.249-14.155h-19.198
	l35.564,108.685h26.125l33.126-108.685H252.682z"/>
<path fill="#FFFFFF" d="M671.455,461.332c-1.307-0.14-2.389-0.12-3.364,0c-3.589,0.475-5.205,2.632-6.597,5.785
	c-0.067,0.168-22.526,57.041-23.487,59.479l-0.008-0.024v0.024c-0.946-2.438-23.417-59.31-23.484-59.479
	c-1.392-3.153-3.006-5.31-6.584-5.785c-0.976-0.12-2.09-0.14-3.366,0c-0.688,0.069-1.433,0.175-2.224,0.339
	c-0.496,0.083-1.008,0.194-1.55,0.32l6.174,15.702l26.052,65.843l4.982,0.006v-0.006h0.008v0.006l4.995-0.006l26.047-65.843
	l6.16-15.702c-0.531-0.126-1.045-0.237-1.537-0.32C672.88,461.507,672.134,461.4,671.455,461.332"/>
<path fill="#FFFFFF" d="M422.139,489.381h-17.286v-44.183h17.286c19.15,0,27.333,6.515,27.333,21.787
	C449.473,482.684,441.289,489.381,422.139,489.381 M422.285,434.811h-29.183v108.733h11.751v-43.935h17.286
	c26.404,0,39.219-10.755,39.219-32.924C461.358,445.538,448.215,434.811,422.285,434.811"/>
<path fill="#FFFFFF" d="M558.266,534.495c-16.733,0-26.726-11.959-26.726-31.988c0-20.094,9.992-32.102,26.726-32.102
	c16.819,0,26.875,12.008,26.875,32.102C585.141,522.536,575.085,534.495,558.266,534.495 M558.266,460.766
	c-23.177,0-38.166,16.399-38.166,41.741c0,25.303,14.989,41.628,38.166,41.628c23.279,0,38.32-16.325,38.32-41.628
	C596.586,477.165,581.545,460.766,558.266,460.766"/>
<path fill="#FFFFFF" d="M883.286,461.675h-4.296v81.866h11.3v-71.889C890.29,464.563,889.65,461.675,883.286,461.675"/>
<path fill="#FFFFFF" d="M884.792,439.488c-3.799,0-7.011,3.206-7.011,6.998c0,3.928,3.077,6.993,7.011,6.993
	c3.907,0,6.993-3.065,6.993-6.993C891.785,442.694,888.574,439.488,884.792,439.488"/>
<path fill="#FFFFFF" d="M990.306,434.851h-4.585v108.693H997v-99.613C997,437.477,996.401,434.851,990.306,434.851"/>
<path fill="#FFFFFF" d="M957.103,523.136c-2.854,3.328-5.901,6.157-9.449,8.097c-3.755,2.094-8.262,3.318-14.298,3.318
	c-2.462,0-4.729-0.271-6.845-0.853c-1.479-0.449-2.807-1.087-4.044-1.866c-1.751-1.136-3.146-2.684-4.197-4.729
	c-1.025-2.123-1.615-4.71-1.615-7.984c0-2.781,0.569-4.962,1.615-6.784c0.805-1.379,1.807-2.553,3.076-3.678
	c1.886-1.542,4.392-2.634,7.438-3.447c2.922-0.764,6.323-1.125,10.154-1.125c6.733,0,12.673,0.851,18.165,2.061V523.136z
	 M962.167,467.625c-2.481-2.458-5.761-4.261-9.563-5.351c-3.694-1.058-7.959-1.508-12.524-1.508
	c-15.62,0.087-24.373,4.603-30.091,7.864c4.209,8.922,8.676,6.751,14.452,4.256c4.426-1.911,9.526-2.693,14.914-2.693
	c2.474,0,5.203,0.588,7.842,1.117c1.557,0.42,2.96,1.001,4.11,1.677c1.887,1.171,3.224,2.646,4.246,4.514
	c1.007,1.895,1.549,4.419,1.549,7.621v11.655c-5.901-1.302-11.868-1.906-18.628-1.906c-4.749,0-9.084,0.46-13.114,1.412
	c-2.942,0.739-5.62,1.731-8.191,3.038c-3.629,2.01-6.62,4.709-8.728,8.101c-2.119,3.468-3.183,7.553-3.183,12.297
	c0,3.878,0.687,7.491,1.963,10.533c2.042,4.574,5.507,8.191,9.809,10.503c4.384,2.366,9.508,3.541,15.301,3.541h0.031
	c6.673,0,11.961-1.229,16.482-3.337c3.093-1.514,5.793-3.366,8.258-5.557c0.059,1.067,0.125,1.935,0.27,2.762
	c0.118,0.879,0.339,1.673,0.725,2.396c0.285,0.534,0.64,1.089,1.086,1.491c0.734,0.562,1.564,0.977,2.391,1.176
	c0.84,0.223,1.845,0.294,2.852,0.294h3.963v-58.879c0-4.231-0.696-7.872-2.05-11.021
	C965.341,471.285,963.939,469.267,962.167,467.625"/>
<path fill="#FFFFFF" d="M849.983,531.334c-3.345,1.634-7.784,2.936-13.57,2.936c-4.448,0-8.212-0.721-11.597-2.09
	c-2.493-1.05-4.652-2.438-6.624-4.207c-2.881-2.654-5.135-6.078-6.723-10.393c-1.55-4.275-2.389-9.417-2.389-15.267
	c0-5.165,0.706-9.682,2.051-13.638c1.926-5.861,5.213-10.355,9.489-13.405c4.244-3.086,9.544-4.697,15.792-4.71
	c5.262,0,9.307,0.874,12.361,2.175c5.795,2.482,9.826,5.413,14.055-3.5c-11.51-9.354-23.068-8.315-26.311-8.469
	c-5.636,0-10.948,0.948-15.649,2.772c-7.108,2.868-12.987,7.78-17.022,14.33c-4.022,6.609-6.218,14.904-6.218,24.446
	c0,6.253,0.85,12.061,2.553,17.172c2.623,7.732,7.069,13.876,13.186,18.17c6.129,4.197,13.754,6.491,22.623,6.491h0.036
	c6.994,0,12.748-1.381,17.305-3.281c0.59-0.252,1.18-0.484,1.721-0.758c3.665-1.736,7.136-4.411,9.168-6.355
	C859.386,525.159,855.563,528.453,849.983,531.334"/>
<path fill="#FFFFFF" d="M694.425,439.488c-3.771,0-6.981,3.206-6.981,6.998c0,3.928,3.074,6.993,6.981,6.993
	c3.941,0,7.004-3.065,7.004-6.993C701.429,442.694,698.227,439.488,694.425,439.488"/>
<path fill="#FFFFFF" d="M692.93,461.675h-4.283v81.866h11.294v-71.889C699.94,464.563,699.311,461.675,692.93,461.675"/>
<path fill="#FFFFFF" d="M762.189,460.766c-11.025,0-21.906,3.839-32.42,11.418v-0.827c0-6.587-0.592-9.683-5.94-9.683h-5.348v81.866
	h11.288v-60.447c10.988-8.23,20.679-12.235,29.566-12.235c9.722,0,13.697,3.927,13.697,13.547v59.135h11.296v-60.03
	C784.329,468.63,776.671,460.766,762.189,460.766"/>
<path fill="#FFFFFF" d="M493.924,465.714c-2.96,1.804-5.62,4.02-7.969,6.348c0-1.958-0.058-3.491-0.231-4.732
	c-0.07-0.984-0.222-1.762-0.483-2.56c-0.204-0.518-0.436-1.078-0.861-1.568c-0.29-0.318-0.608-0.604-0.977-0.822
	c-0.542-0.352-1.133-0.555-1.742-0.628c-0.514-0.069-1.055-0.069-1.623-0.121h-5.391v81.909h11.309v-58.793
	c3.956-4.68,7.642-7.578,10.155-9.173c0.088-0.044,0.164-0.086,0.252-0.145c4.555-2.896,8.23-3.696,11.123-3.961
	c5.271-0.507,8.772-1.199,9.284-9.363c-2.108-0.613-4.518-1.001-7.07-1.039C503.724,461.042,498.44,462.884,493.924,465.714"/>
</svg>
