<svg id="Capa_1" data-name="Capa 1" xmlns="http://www.w3.org/2000/svg" viewBox="0 0 540 540"><defs><style>.cls-1{fill:#323f81;fill-rule:evenodd;}</style></defs><path class="cls-1" d="M466.12,322.63v190c0,17.61-9.67,27.16-27.34,27.16q-168.84,0-337.71.17c-15.32.06-27.49-11.23-27.44-27.49.41-127.29.24-254.59.24-381.83,0-7.71,0-7.71-8-7.71-12,0-23.91-.22-35.9.06-4.54.11-5.5-1.34-5.45-5.59.23-20.62.28-41.24,0-61.8-.07-5,.92-6.54,6.31-6.48,44.92.22,89.82,0,134.73.22,5.38,0,6.65-1.51,6.29-6.48-.44-6-.23-12.19-.07-18.22.33-14,10.92-24.59,24.81-24.59Q269.8-.08,343,0c14.42,0,24.89,10.45,25.17,24.75.16,6.32.37,12.58-.06,18.83-.34,4.81,1.36,5.76,5.86,5.7,44.9-.11,89.81,0,134.71-.16,5.27,0,6.86,1.17,6.78,6.64-.35,20.57-.29,41.19,0,61.75.06,4.64-1.37,5.53-5.64,5.48-12.55-.23-25.12.11-37.65-.17-4.95-.17-6.2,1.34-6.2,6.2Q466.25,225.87,466.12,322.63ZM195.87,465.12a21.35,21.35,0,0,0,.54-2.57q0-94,.09-188.09c0-3.8-1.39-4.52-4.76-4.47-12.94.17-25.88.22-38.8-.05-4.15-.06-5.31,1.28-5.31,5.36q.21,68.73.06,137.52c0,2.4.32,4.47,2.23,6.37C165.08,434.22,180.1,449.37,195.87,465.12Zm98.39.45c0-65,0-128.3.08-191.61,0-3.8-1.95-4-4.77-3.91-12.73.05-25.47.27-38.23-.11-4.84-.12-5.75,1.56-5.74,6,.14,43.31.28,86.61-.1,129.92-.05,7.88,1.95,13.47,7.74,18.89C266.91,437.63,279.87,451.21,294.26,465.57Zm97.22-.5a17.13,17.13,0,0,0,.72-2.69q0-94,.1-188.2c0-3.57-1.57-4.19-4.62-4.19-13.15.11-26.27.22-39.4-.05-4-.06-4.8,1.45-4.8,5.08q.16,69.15,0,138.19c0,2,0,3.8,1.62,5.42C360.41,433.77,375.58,449.08,391.48,465.07Z"/></svg>