<svg id="Capa_1" data-name="Capa 1" xmlns="http://www.w3.org/2000/svg" viewBox="0 0 540 540"><defs><style>.cls-1{fill:#fff;}</style></defs><path class="cls-1" d="M237.83,90.15,149.06,1.49c1-.76,1.41-1.28,1.79-1.28,13.49-.07,27,0,40.46-.18,2.78,0,4.15,1.84,5.77,3.45,22.39,22.37,44.83,44.7,67.07,67.21,3,3,4.45,2.94,7.37,0C293.64,48.29,316,26.13,338.16,3.79A11.23,11.23,0,0,1,347.08,0c11.14.23,22.29.07,33.44.09,1.73,0,3.46.15,6.94.32L298.24,89.23c2.49,1.45,4.49.88,6.37.89q105.47,0,210.94,0c15.42,0,24.34,8.95,24.34,24.47q0,155.91,0,311.83c0,13.53-9.42,23.34-22.85,23.34q-247.1,0-494.18,0C9.66,449.79.1,440.24.1,427Q0,270,.1,113c0-13.58,9.54-22.85,23.23-22.85q103.59,0,207.17,0Zm31.81,314.33q109.5,0,219,.1c4.75,0,6.32-1,6.31-6.11q-.27-128.37,0-256.74c0-5.08-1.12-6.63-6.43-6.62q-218.44.22-436.89,0c-5.13,0-6.58,1.22-6.57,6.48q.26,128.37,0,256.74c0,4.84,1.1,6.28,6.15,6.27Q160.42,404.35,269.64,404.48Z"/><path class="cls-1" d="M270.58,539.89c-50.68,0-101.37-.06-152,.1-4.49,0-5.78-1.13-5.66-5.63.31-11.85.19-23.72,0-35.58,0-3,.73-4.38,3.89-4a36.41,36.41,0,0,0,4.31,0q150.42,0,300.86-.11c4.83,0,6.42,1.08,6.22,6.13-.41,10.94-.35,21.93,0,32.88.15,4.77-1,6.33-6.09,6.31-43.13-.23-86.27-.13-129.4-.13Z"/><path class="cls-1" d="M381.35,180.18c-.44,2.5-2.14,3.4-3.35,4.62q-85.56,85.72-171.09,171.48a12.6,12.6,0,0,1-9.88,4.05q-50.44-.22-100.89,0c-4.42,0-6.13-.66-6.11-5.73q.3-84.44.08-168.87c0-3.57-.06-5.84,4.92-5.83q141.89.26,283.78.13C379.52,180,380.23,180.11,381.35,180.18Z"/></svg>