<svg id="Capa_1" data-name="Capa 1" xmlns="http://www.w3.org/2000/svg" viewBox="0 0 540 540"><defs><style>.cls-1{fill:#fff;}</style></defs><path class="cls-1" d="M539,68.5c1.49,1.75.79,3.82.79,5.7q.06,83.37,0,166.73c0,6.5,0,6.55-6.53,4.7q-73-20.81-146-41.68c-1.47-.42-3.31-.27-4.47-2.26q16.29-14,32.65-28c5.86-5,11.56-10.3,17.72-14.95,3.4-2.57,2.82-4.31.67-7.22-32-43.22-74.2-70.84-127.12-80.41-59.57-10.77-114.11,2.5-161.79,40-42.86,33.68-68.16,78.12-75.45,132.34C55.52,347.13,123,442.65,221.52,466c70.64,16.72,133.47-.3,187.19-49.33C432.38,395,449,368.58,460,338.55c1.41-3.88,2.69-4.81,6.76-3.39,18.32,6.37,36.74,12.45,55.19,18.41,3.64,1.18,4.07,2.65,2.77,6-36.42,94.44-103.41,155-202.8,174.58-99.11,19.5-184.49-10.35-253.22-84.46-37-39.9-59.13-87.8-66-141.91-11.94-94.4,17.22-174.55,87.07-239,40.14-37,88.13-59.12,142.42-66.17C316-8.27,389.6,14.89,452.65,71.19a232.79,232.79,0,0,1,32.89,36.32c2.3,3.16,3.77,3.14,6.56.69C506,96,520.12,84,534.17,71.93,535.64,70.66,536.85,69,539,68.5Z"/></svg>