<svg id="Capa_1" data-name="Capa 1" xmlns="http://www.w3.org/2000/svg" viewBox="0 0 540 540"><defs><style>.cls-1{fill:#fff;}</style></defs><path class="cls-1" d="M270.08,538H26.41c-1.55,0-3.11,0-4.67,0C4.81,537.63-2.62,525.9,4.9,510.72c14.17-28.57,28.66-57,43-85.46q59.55-118,119.12-235.93,44.22-87.5,88.5-174.93c.18-.35.38-.68.56-1,3-5.91,6.67-11.55,14.12-11.43,7.12.11,10.72,5.56,13.62,11.31q27.79,54.91,55.56,109.86,72.48,143.47,144.94,287,24.33,48.18,48.72,96.32c1,1.9,2,3.79,2.82,5.76,5.89,13.8-.71,24.67-15.72,25.85-1.74.14-3.5,0-5.25,0ZM246.49,174.27c-.21.37-.54.68-.54,1q-.06,94.07-.13,188.14c0,3.68,1.7,4,4.63,4,12.86-.1,25.72-.2,38.57.05,4.11.08,5.22-1.18,5.21-5.25q-.19-68.35,0-136.72a9.87,9.87,0,0,0-3.24-7.63c-13.72-13.56-27.31-27.24-41-40.84C249,176,248.24,174.44,246.49,174.27ZM269.9,488.93a36.71,36.71,0,0,0,36.63-36.24c.21-19.73-16.4-36.36-36.4-36.43s-36.63,16.38-36.65,36.19A36.76,36.76,0,0,0,269.9,488.93Z"/></svg>